# xmcd CD database file
#
# Track frame offsets:
#	150
#	22087
#	43262
#	59698
#	80823
#	95873
#	110998
#	126273
#	140973
#	169326
#	183468
#	200421
#	238448
#
# Disc length: 3892 seconds
#
# Revision: 0
# Processed by: cddbd v1.5.2PL0 Copyright (c) Steve Scherf et al.
# Submitted via: CDex 1.70beta2
#
DISCID=de0f320d
DTITLE=Ben Webster - Jazz Roads CD160 - Swing - Ben Webster and Friends Vol.2 (1953-54)
DYEAR=2006
DGENRE=Jazz
TTITLE0=Gene Krupa  - Imagination
TTITLE1=Gene Krupa  - Don't Take Your Love From Me
TTITLE2=Gene Krupa  - Midget
TTITLE3=Gene Krupa  - I'm Coming Virginia
TTITLE4=Gene Krupa  - Payin' Them Dues Blues
TTITLE5=Gene Krupa  - Jungle Drums
TTITLE6=Gene Krupa  - Showcase
TTITLE7=Gene Krupa  - Swedish Schnapps
TTITLE8=Johnny Hodges - In A Mellow Tone
TTITLE9=Johnny Hodges - I Let A Song Go Out Of My Heart
TTITLE10=Johnny Hodges - Don't Get Around Much Anymore
TTITLE11=Illinois Jacquet - The Kid And The Brute
TTITLE12=Illinois Jacquet - I Wrote This For The Kid
EXTD=YEAR: 2006
EXTT0=
EXTT1=
EXTT2=
EXTT3=
EXTT4=
EXTT5=
EXTT6=
EXTT7=
EXTT8=
EXTT9=
EXTT10=
EXTT11=
EXTT12=
PLAYORDER=
